<mxfile host="app.diagrams.net" agent="Mozilla/5.0 (Windows NT 10.0; Win64; x64) AppleWebKit/537.36 (KHTML, like Gecko) Chrome/127.0.0.0 Safari/537.36 Edg/127.0.0.0" version="24.7.6">
  <diagram name="Page-1" id="ggWHiCoE2q-dVaTD7KkO">
    <mxGraphModel dx="1737" dy="958" grid="1" gridSize="10" guides="1" tooltips="1" connect="1" arrows="1" fold="1" page="1" pageScale="1" pageWidth="1169" pageHeight="827" math="0" shadow="0">
      <root>
        <mxCell id="0" />
        <mxCell id="1" parent="0" />
        <mxCell id="8cktNmYhc_tj7s3B9UXk-8" value="&lt;div style=&quot;text-align: left;&quot;&gt;&lt;span style=&quot;background-color: initial;&quot;&gt;Bank Management&lt;/span&gt;&lt;br&gt;&lt;/div&gt;" style="whiteSpace=wrap;html=1;aspect=fixed;align=center;verticalAlign=top;" vertex="1" parent="1">
          <mxGeometry x="344" y="110" width="480" height="480" as="geometry" />
        </mxCell>
        <mxCell id="8cktNmYhc_tj7s3B9UXk-1" value="Transfer Account" style="ellipse;whiteSpace=wrap;html=1;" vertex="1" parent="1">
          <mxGeometry x="618" y="130" width="132" height="70" as="geometry" />
        </mxCell>
        <mxCell id="8cktNmYhc_tj7s3B9UXk-2" value="Login" style="ellipse;whiteSpace=wrap;html=1;" vertex="1" parent="1">
          <mxGeometry x="414" y="270" width="140" height="70" as="geometry" />
        </mxCell>
        <mxCell id="8cktNmYhc_tj7s3B9UXk-3" value="Hint Pass word" style="ellipse;whiteSpace=wrap;html=1;" vertex="1" parent="1">
          <mxGeometry x="414" y="450" width="140" height="70" as="geometry" />
        </mxCell>
        <mxCell id="8cktNmYhc_tj7s3B9UXk-4" value="Login" style="ellipse;whiteSpace=wrap;html=1;" vertex="1" parent="1">
          <mxGeometry x="618" y="340" width="140" height="70" as="geometry" />
        </mxCell>
        <mxCell id="8cktNmYhc_tj7s3B9UXk-5" style="edgeStyle=orthogonalEdgeStyle;rounded=0;orthogonalLoop=1;jettySize=auto;html=1;exitX=0.5;exitY=1;exitDx=0;exitDy=0;" edge="1" parent="1" source="8cktNmYhc_tj7s3B9UXk-2" target="8cktNmYhc_tj7s3B9UXk-2">
          <mxGeometry relative="1" as="geometry" />
        </mxCell>
        <mxCell id="8cktNmYhc_tj7s3B9UXk-6" value="&amp;lt;&amp;lt;include&amp;gt;&amp;gt;" style="edgeStyle=none;html=1;endArrow=open;verticalAlign=bottom;dashed=1;labelBackgroundColor=none;rounded=0;" edge="1" parent="1" source="8cktNmYhc_tj7s3B9UXk-2" target="8cktNmYhc_tj7s3B9UXk-1">
          <mxGeometry width="160" relative="1" as="geometry">
            <mxPoint x="528" y="260" as="sourcePoint" />
            <mxPoint x="688" y="260" as="targetPoint" />
          </mxGeometry>
        </mxCell>
        <mxCell id="8cktNmYhc_tj7s3B9UXk-7" value="&amp;lt;&amp;lt;extend&amp;gt;&amp;gt;" style="edgeStyle=none;html=1;startArrow=open;endArrow=none;startSize=12;verticalAlign=bottom;dashed=1;labelBackgroundColor=none;rounded=0;exitX=0.5;exitY=1;exitDx=0;exitDy=0;entryX=0.5;entryY=0;entryDx=0;entryDy=0;" edge="1" parent="1" source="8cktNmYhc_tj7s3B9UXk-2" target="8cktNmYhc_tj7s3B9UXk-3">
          <mxGeometry width="160" relative="1" as="geometry">
            <mxPoint x="414" y="410" as="sourcePoint" />
            <mxPoint x="574" y="410" as="targetPoint" />
          </mxGeometry>
        </mxCell>
        <mxCell id="8cktNmYhc_tj7s3B9UXk-9" value="User" style="shape=umlActor;verticalLabelPosition=bottom;verticalAlign=top;html=1;outlineConnect=0;" vertex="1" parent="1">
          <mxGeometry x="120" y="240" width="30" height="60" as="geometry" />
        </mxCell>
        <mxCell id="8cktNmYhc_tj7s3B9UXk-10" value="Banker" style="shape=umlActor;verticalLabelPosition=bottom;verticalAlign=top;html=1;outlineConnect=0;" vertex="1" parent="1">
          <mxGeometry x="950" y="240" width="30" height="60" as="geometry" />
        </mxCell>
        <mxCell id="8cktNmYhc_tj7s3B9UXk-13" style="edgeStyle=orthogonalEdgeStyle;rounded=0;orthogonalLoop=1;jettySize=auto;html=1;entryX=0;entryY=0.3333333333333333;entryDx=0;entryDy=0;entryPerimeter=0;endArrow=none;endFill=0;" edge="1" parent="1" source="8cktNmYhc_tj7s3B9UXk-1" target="8cktNmYhc_tj7s3B9UXk-10">
          <mxGeometry relative="1" as="geometry" />
        </mxCell>
      </root>
    </mxGraphModel>
  </diagram>
</mxfile>
